<mxfile host="app.diagrams.net" modified="2023-09-22T13:55:23.040Z" agent="Mozilla/5.0 (Macintosh; Intel Mac OS X 10.15; rv:109.0) Gecko/20100101 Firefox/117.0" version="21.8.0" etag="4ajH3XdYGn-pAmAaYgH3" type="github">
  <diagram name="Page-1" id="qps8K0kDZpAhwnPpsTb9">
    <mxGraphModel>
      <root>
        <mxCell id="0" />
        <mxCell id="1" parent="0" />
      </root>
    </mxGraphModel>
  </diagram>
</mxfile>
